<?xml version="1.0" encoding="UTF-8" standalone="no"?>
<svg
   fill="context-fill"
   fill-opacity="context-fill-opacity"
   width="24"
   height="24"
   viewBox="0 0 48 48"
   version="1.1"
   id="svg14"
   xml:space="preserve"
   sodipodi:docname="checkbox.svg"
   inkscape:version="1.3.1 (91b66b0783, 2023-11-16)"
   xmlns:inkscape="http://www.inkscape.org/namespaces/inkscape"
   xmlns:sodipodi="http://sodipodi.sourceforge.net/DTD/sodipodi-0.dtd"
   xmlns="http://www.w3.org/2000/svg"
   xmlns:svg="http://www.w3.org/2000/svg"><sodipodi:namedview
     id="namedview1"
     pagecolor="#ffffff"
     bordercolor="#000000"
     borderopacity="0.25"
     inkscape:showpageshadow="2"
     inkscape:pageopacity="0.0"
     inkscape:pagecheckerboard="0"
     inkscape:deskcolor="#d1d1d1"
     inkscape:zoom="11.75393"
     inkscape:cx="10.762358"
     inkscape:cy="15.569261"
     inkscape:window-width="1280"
     inkscape:window-height="735"
     inkscape:window-x="0"
     inkscape:window-y="0"
     inkscape:window-maximized="1"
     inkscape:current-layer="svg14" /><defs
     id="defs18" /><path
     id="path2"
     d="m 32.085937,13.578125 c -0.204102,-0.0061 -0.406666,0.01393 -0.605468,0.06055 h -0.002 -0.002 c -0.606172,0.145666 -1.129416,0.526985 -1.455078,1.058594 l -4.066406,6.636718 -4.298828,7.011719 -4.146484,-4.859375 C 17.129866,23.0408 16.58937,22.765209 16.005766,22.718753 c -0.58307,-0.04596 -1.162361,0.140053 -1.607421,0.519531 -0.925373,0.788908 -1.034692,2.191265 -0.244141,3.115235 l 6.1875,7.25 v 0.002 c 0.418863,0.487245 1.031647,0.762991 1.673828,0.763672 0.860673,0.05239 1.684634,-0.368343 2.140625,-1.101563 h 0.002 l 5.804688,-9.476562 4.066406,-6.632813 c 0.676804,-1.103771 0.327171,-2.558784 -0.777344,-3.234375 -0.351721,-0.21562 -0.753608,-0.334733 -1.166016,-0.345703 z M 32.0625,14.40625 c 0.26712,0.0071 0.528047,0.083 0.755859,0.222656 0.722232,0.441762 0.946462,1.373958 0.503907,2.095703 l -4.066407,6.634766 -5.802734,9.470703 c -0.29858,0.480108 -0.836412,0.754615 -1.400391,0.714844 h -0.01563 -0.01563 c -0.404114,0.0016 -0.787341,-0.174021 -1.050781,-0.480469 l -6.1875,-7.248047 c -0.499088,-0.583317 -0.429906,-1.449215 0.154297,-1.947265 0.278236,-0.237237 0.637439,-0.354903 1.001953,-0.326172 0.364849,0.02904 0.703965,0.201938 0.941406,0.480468 l 4.884766,5.726563 4.896484,-7.982422 4.066407,-6.638672 c 0.211043,-0.344506 0.550533,-0.589196 0.943359,-0.683593 0.127553,-0.02956 0.259738,-0.04297 0.390625,-0.03906 z m 0.01172,-0.414783 a 1.937145,1.937145 0 0 0 -0.5,0.05029 1.937145,1.937145 0 0 0 -1.199219,0.871615 l -4.066406,6.637681 -4.597657,7.496725 -4.515625,-5.292545 a 1.793655,1.793655 0 0 0 -1.222656,-0.624378 1.793655,1.793655 0 0 0 -1.304687,0.423236 1.793655,1.793655 0 0 0 -0.199219,2.531035 l 6.1875,7.249488 a 1.793655,1.793655 0 0 0 1.367187,0.624377 1.937145,1.937145 0 0 0 1.78125,-0.909328 l 5.804688,-9.47462 4.066406,-6.633491 a 1.937145,1.937145 0 0 0 -0.640625,-2.665129 1.937145,1.937145 0 0 0 -0.960937,-0.284951 z"
     transform="matrix(1,0,0,0.93217794,0,1.6449632)" /></svg>
