<?xml version="1.0" encoding="UTF-8" standalone="no"?>
<svg
   width="16"
   height="16"
   fill="none"
   version="1.1"
   viewBox="0 0 16 16"
   id="svg1"
   sodipodi:docname="private.svg"
   inkscape:version="1.3.1 (91b66b0783, 2023-11-16)"
   xmlns:inkscape="http://www.inkscape.org/namespaces/inkscape"
   xmlns:sodipodi="http://sodipodi.sourceforge.net/DTD/sodipodi-0.dtd"
   xmlns="http://www.w3.org/2000/svg"
   xmlns:svg="http://www.w3.org/2000/svg">
  <defs
     id="defs1" />
  <sodipodi:namedview
     id="namedview1"
     pagecolor="#ffffff"
     bordercolor="#000000"
     borderopacity="0.25"
     inkscape:showpageshadow="2"
     inkscape:pageopacity="0.0"
     inkscape:pagecheckerboard="0"
     inkscape:deskcolor="#d1d1d1"
     inkscape:zoom="21.655145"
     inkscape:cx="4.8949106"
     inkscape:cy="10.713389"
     inkscape:window-width="1280"
     inkscape:window-height="735"
     inkscape:window-x="0"
     inkscape:window-y="0"
     inkscape:window-maximized="1"
     inkscape:current-layer="svg1" />
  <path
     d="m8 0.35156a1.0001 1.0001 0 0 0-0.37109 0.072266l-5 2a1.0001 1.0001 0 0 0-0.62891 0.92773v7c0 0.91667 0.49969 1.6132 1.0547 2.2012s1.2307 1.0936 1.8945 1.5312c1.3276 0.87537 2.6328 1.4727 2.6328 1.4727a1.0001 1.0001 0 0 0 0.83594 0s1.3052-0.59728 2.6328-1.4727c0.66379-0.43769 1.3395-0.9433 1.8945-1.5312 0.555-0.58795 1.0547-1.2845 1.0547-2.2012v-7a1.0001 1.0001 0 0 0-0.62891-0.92773l-5-2a1.0001 1.0001 0 0 0-0.37109-0.072266zm0 1 5 2v7c0 2-5 4.2969-5 4.2969v-13.297z"
     fill="#333333"
     id="path1"
     style="fill:#ffffff;fill-opacity:0.49650639" />
</svg>
