<?xml version="1.0" encoding="UTF-8" standalone="no"?>
<!-- Uploaded to: SVG Repo, www.svgrepo.com, Generator: SVG Repo Mixer Tools -->

<svg
   fill="context-fill"
   fill-opacity="context-fill-opacity"
   height="16"
   width="16"
   version="1.1"
   viewBox="0 0 8.94958 8.94958"
   enable-background="new 0 0 447.479 447.479"
   id="svg5"
   sodipodi:docname="16set.svg"
   xml:space="preserve"
   inkscape:version="1.3.1 (91b66b0783, 2023-11-16)"
   xmlns:inkscape="http://www.inkscape.org/namespaces/inkscape"
   xmlns:sodipodi="http://sodipodi.sourceforge.net/DTD/sodipodi-0.dtd"
   xmlns="http://www.w3.org/2000/svg"
   xmlns:svg="http://www.w3.org/2000/svg"><defs
     id="defs5"><filter
       id="a"
       width="2.9060218"
       height="3.3844087"
       x="-0.95301092"
       y="-1.1678737"
       filterUnits="objectBoundingBox"><feOffset
         dy="1"
         in="SourceAlpha"
         result="shadowOffsetOuter1"
         id="feOffset1" /><feGaussianBlur
         stdDeviation="10"
         in="shadowOffsetOuter1"
         result="shadowBlurOuter1"
         id="feGaussianBlur1" /><feColorMatrix
         values="0 0 0 0 0 0 0 0 0 0 0 0 0 0 0 0 0 0 0.1 0"
         in="shadowBlurOuter1"
         result="shadowMatrixOuter1"
         id="feColorMatrix1" /><feMerge
         id="feMerge2"><feMergeNode
           in="shadowMatrixOuter1"
           id="feMergeNode1" /><feMergeNode
           in="SourceGraphic"
           id="feMergeNode2" /></feMerge></filter></defs><sodipodi:namedview
     id="namedview5"
     pagecolor="#ffffff"
     bordercolor="#000000"
     borderopacity="0.25"
     inkscape:showpageshadow="2"
     inkscape:pageopacity="0.0"
     inkscape:pagecheckerboard="0"
     inkscape:deskcolor="#d1d1d1"
     inkscape:zoom="13.859293"
     inkscape:cx="-0.86584504"
     inkscape:cy="8.8749117"
     inkscape:window-width="1280"
     inkscape:window-height="735"
     inkscape:window-x="0"
     inkscape:window-y="0"
     inkscape:window-maximized="1"
     inkscape:current-layer="svg5" /><path
     id="path6"
     style="display:inline;stroke-width:1.31521"
     transform="matrix(0.02663102,0,0,0.02663102,-1.4836214,-1.4922203)"
     d="M 242.18289,310.02819 H 72.299502 c -7.263878,0 -13.152052,5.88816 -13.152052,13.15205 0,7.26388 5.888174,13.15204 13.152052,13.15204 H 242.18685 c 5.52648,16.59526 21.19322,28.59915 39.62056,28.59915 18.42734,0 34.09405,-12.00389 39.62054,-28.59915 h 53.75155 c 7.26387,0 13.15205,-5.88816 13.15205,-13.15204 0,-7.26389 -5.88818,-13.15205 -13.15205,-13.15205 h -53.74759 c -5.52256,-16.60052 -21.19323,-28.60966 -39.6245,-28.60966 -18.4313,0 -34.10197,12.00914 -39.62452,28.60966 z m 55.07685,13.14679 c 0,8.5212 -6.93243,15.45235 -15.45233,15.45235 -8.5199,0 -15.45236,-6.93245 -15.45236,-15.45235 0,-8.5199 6.93246,-15.45236 15.45236,-15.45236 8.5199,0 15.45233,6.93246 15.45233,15.45236 z m -87.6398,-85.96582 h 165.55955 c 7.26388,0 13.15205,-5.88817 13.15205,-13.15205 0,-7.26388 -5.88817,-13.15205 -13.15205,-13.15205 h -165.5635 c -5.52649,-16.59526 -21.19321,-28.59914 -39.62055,-28.59914 -18.42734,0 -34.09407,12.00388 -39.62056,28.59914 H 72.299511 c -7.263877,0 -13.152051,5.88817 -13.152051,13.15205 0,7.26388 5.888174,13.15205 13.152051,13.15205 h 58.071419 c 5.52255,16.60052 21.19322,28.60966 39.62451,28.60966 18.43128,0 34.10195,-12.00914 39.6245,-28.60966 z m -55.07685,-13.14679 c 0,-8.52122 6.93245,-15.45235 15.45235,-15.45235 8.5199,0 15.45234,6.93245 15.45234,15.45235 0,8.5199 -6.93244,15.45234 -15.45234,15.45234 -8.5199,0 -15.45235,-6.93244 -15.45235,-15.45234 z m 166.11865,-85.95924 h 54.51775 c 7.26388,0 13.15205,-5.88817 13.15205,-13.15205 0,-7.26388 -5.88817,-13.15205 -13.15205,-13.15205 h -54.51644 c -5.52386,-16.59789 -21.1919,-28.60571 -39.62187,-28.60571 -18.42997,0 -34.09932,12.006505 -39.62187,28.60571 H 72.299512 c -7.263878,0 -13.152052,5.88817 -13.152052,13.15205 0,7.26388 5.888174,13.15205 13.152052,13.15205 H 241.41931 c 5.52518,16.59789 21.19322,28.60309 39.62187,28.60309 18.42866,0 34.0967,-12.00651 39.62056,-28.60309 z m -55.07422,-13.15336 c 0,-8.5199 6.93245,-15.45235 15.45235,-15.45235 8.51989,0 15.45234,6.93245 15.45234,15.45235 0,8.52121 -6.93245,15.45234 -15.45234,15.45234 -8.5199,0 -15.45235,-6.93244 -15.45235,-15.45234 z" /></svg>
